<svg width="24" height="24" viewBox="0 0 24 24" xmlns="http://www.w3.org/2000/svg" xmlns:xlink="http://www.w3.org/1999/xlink" fill="none" overflow="hidden"><path d="M13.209 3.103C12.714 2.099 11.283 2.099 10.788 3.103L8.43 7.88 3.157 8.646C2.05 8.807 1.607 10.168 2.409 10.949L6.224 14.669 5.324 19.919C5.134 21.022 6.292 21.863 7.283 21.342L12.347 18.68C12.7137 18.4873 12.8547 18.0337 12.662 17.667 12.4693 17.3003 12.0157 17.1593 11.649 17.352L6.854 19.873 7.716 14.843C7.79086 14.4054 7.64579 13.959 7.328 13.649L3.674 10.087 8.724 9.353C9.164 9.289 9.544 9.013 9.74 8.615L11.998 4.039 14.487 9.082C14.6134 9.33812 14.8744 9.50019 15.16 9.5L21.25 9.5C21.6642 9.5 22 9.16421 22 8.75 22 8.33579 21.6642 8 21.25 8L15.626 8 13.209 3.103Z" fill="#FFFFFF"/><path d="M14.5 12.75C14.5 12.3358 14.8358 12 15.25 12L21.25 12C21.6642 12 22 12.3358 22 12.75 22 13.1642 21.6642 13.5 21.25 13.5L15.25 13.5C14.8358 13.5 14.5 13.1642 14.5 12.75ZM14.5 16.75C14.5 16.3358 14.8358 16 15.25 16L21.25 16C21.6642 16 22 16.3358 22 16.75 22 17.1642 21.6642 17.5 21.25 17.5L15.25 17.5C14.8358 17.5 14.5 17.1642 14.5 16.75Z" fill="#FFFFFF"/></svg>