<svg width="24" height="24" viewBox="0 0 24 24" xmlns="http://www.w3.org/2000/svg" xmlns:xlink="http://www.w3.org/1999/xlink" fill="none" overflow="hidden"><path d="M13.209 3.103C12.714 2.099 11.283 2.099 10.788 3.103L8.43 7.88 3.157 8.646C2.05 8.807 1.607 10.168 2.409 10.949L6.224 14.669 5.324 19.919C5.134 21.022 6.292 21.863 7.283 21.343L11.998 18.863 16.714 21.343C17.704 21.863 18.862 21.023 18.674 19.919L17.772 14.669 21.588 10.949C22.388 10.169 21.947 8.807 20.84 8.646L15.567 7.88 13.209 3.103ZM9.74 8.615 11.998 4.039 14.257 8.615C14.4537 9.01313 14.8336 9.28907 15.273 9.353L20.323 10.087 16.669 13.649C16.3509 13.9592 16.2058 14.4061 16.281 14.844L17.143 19.874 12.627 17.499C12.2336 17.292 11.7634 17.292 11.37 17.499L6.854 19.873 7.716 14.844C7.7912 14.4061 7.64611 13.9592 7.328 13.649L3.674 10.087 8.724 9.353C9.164 9.29 9.544 9.013 9.74 8.615ZM1.164 3.782C0.905561 4.10565 0.958389 4.57752 1.282 4.836L3.782 6.836C4.10564 7.09475 4.57775 7.04214 4.8365 6.7185 5.09525 6.39486 5.04264 5.92275 4.719 5.664L2.219 3.664C1.89559 3.4052 1.42361 3.45757 1.16481 3.78098 1.16454 3.78132 1.16427 3.78166 1.164 3.782Z" fill="#FFFFFF"/><path d="M22.836 18.218C23.0947 17.8946 23.0423 17.4228 22.719 17.164L20.219 15.164C19.8954 14.905 19.423 14.9574 19.164 15.281 18.905 15.6046 18.9574 16.077 19.281 16.336L21.781 18.336C22.1042 18.5951 22.5762 18.5431 22.8353 18.2199 22.8355 18.2196 22.8358 18.2193 22.836 18.219ZM1.282 17.164C0.958361 17.4227 0.905755 17.8949 1.1645 18.2185 1.42325 18.5421 1.89536 18.5947 2.219 18.336L4.719 16.336C5.04264 16.0773 5.09525 15.6051 4.8365 15.2815 4.57775 14.9579 4.10564 14.9053 3.782 15.164L1.282 17.164ZM22.836 3.782C23.0947 4.10538 23.0423 4.57722 22.719 4.836L20.219 6.836C19.8954 7.09502 19.423 7.04264 19.164 6.719 18.905 6.39536 18.9574 5.92302 19.281 5.664L21.781 3.664C22.1044 3.4052 22.5764 3.45757 22.8352 3.78098 22.8355 3.78132 22.8357 3.78166 22.836 3.782Z" fill="#FFFFFF"/></svg>