<svg width="24" height="24" viewBox="0 0 24 24" xmlns="http://www.w3.org/2000/svg" xmlns:xlink="http://www.w3.org/1999/xlink" fill="#FFFFFF" overflow="hidden"><path d="M21.634 4.031C20.819 4.416 19.432 5.138 18.735 5.276 18.708 5.283 18.686 5.292 18.66 5.299 17.847 4.497 16.733 4 15.5 4 13.015 4 11 6.015 11 8.5 11 8.631 10.989 8.872 11 9 7.782 9 5.432 7.321 3.673 5.163 3.438 4.873 3.188 5.024 3.136 5.23 3.019 5.696 2.979 6.475 2.979 7.031 2.979 8.432 4.074 9.808 5.779 10.661 5.465 10.742 5.119 10.8 4.759 10.8 4.335 10.8 3.847 10.689 3.42 10.465 3.262 10.382 2.921 10.405 3.022 10.809 3.427 12.428 5.275 13.565 6.926 13.896 6.551 14.117 5.751 14.072 5.383 14.072 5.247 14.072 4.774 14.04 4.468 14.002 4.189 13.968 3.76 14.04 4.119 14.584 4.89 15.751 6.634 16.484 8.135 16.512 6.753 17.596 4.493 17.992 2.328 17.992 1.89 17.982 1.912 18.481 2.265 18.666 3.862 19.504 6.478 20 8.347 20 15.777 20 20 14.337 20 8.999 20 8.913 19.998 8.733 19.995 8.552 19.995 8.534 20 8.517 20 8.499 20 8.472 19.992 8.446 19.992 8.419 19.989 8.283 19.986 8.156 19.983 8.09 20.572 7.665 21.474 6.927 21.93 6.362 22.085 6.17 21.96 5.937 21.749 6.01 21.206 6.199 20.267 6.565 19.679 6.635 20.856 5.856 21.438 5.178 21.938 4.425 22.109 4.168 21.895 3.907 21.634 4.031Z"/></svg>