<svg width="24" height="24" viewBox="0 0 24 24" xmlns="http://www.w3.org/2000/svg" xmlns:xlink="http://www.w3.org/1999/xlink" fill="none" overflow="hidden"><path d="M12 1.999C17.524 1.999 22.002 6.477 22.002 12.001 22.002 17.524 17.524 22.002 12 22.002 6.476 22.002 1.998 17.524 1.998 12.001 1.998 6.477 6.476 1.999 12 1.999ZM12 3.499C7.30475 3.44808 3.45722 7.21305 3.4063 11.9083 3.35537 16.6035 7.12034 20.4511 11.8156 20.502 11.8771 20.5027 11.9385 20.5027 12 20.502 16.695 20.43 20.4426 16.5656 20.3706 11.8706 20.3001 7.27715 16.5935 3.57046 12 3.5ZM11.996 10.499C12.3712 10.4985 12.689 10.7753 12.74 11.147L12.747 11.249 12.75 16.751C12.7499 17.1652 12.414 17.5009 11.9998 17.5008 11.6251 17.5007 11.3081 17.2241 11.257 16.853L11.25 16.752 11.247 11.25C11.247 10.8358 11.5828 10.5 11.997 10.5ZM12 7.003C12.5515 6.98555 13.0126 7.41844 13.0301 7.9699 13.0476 8.52135 12.6147 8.98255 12.0632 9 12.0421 9.00067 12.0211 9.00067 12 9 11.4485 8.98255 11.0156 8.52135 11.0331 7.9699 11.0498 7.44296 11.4731 7.01968 12 7.003Z" fill="#7F7F7F"/></svg>