<svg width="24" height="24" viewBox="0 0 24 24" xmlns="http://www.w3.org/2000/svg" xmlns:xlink="http://www.w3.org/1999/xlink" fill="none" overflow="hidden"><path d="M17.38 2.344C17.6045 2.69208 17.5044 3.15627 17.1563 3.3808 17.1562 3.38087 17.1561 3.38093 17.156 3.381L5.304 11 9.5 11 9.5 10.25C9.5 9.284 10.284 8.5 11.25 8.5L14.5 8.5 14.5 7.75C14.5 6.784 15.284 6 16.25 6L19.25 6C20.216 6 21 6.784 21 7.75L21 11 21.25 11C21.6642 11 22 11.3358 22 11.75L22 18.75C22 20.5449 20.5449 22 18.75 22L5.25 22C3.45507 22 2 20.5449 2 18.75L2 11.75C2.00021 11.4952 2.12976 11.2579 2.344 11.12L16.344 2.12C16.6921 1.89547 17.1563 1.99562 17.3808 2.34369 17.3809 2.3438 17.3809 2.3439 17.381 2.344ZM19.5 11 19.5 7.75C19.5 7.61193 19.3881 7.5 19.25 7.5L16.25 7.5C16.1119 7.5 16 7.61193 16 7.75L16 11 19.5 11ZM14.5 11 14.5 10 11.25 10C11.1119 10 11 10.1119 11 10.25L11 11 14.5 11ZM3.5 12.5 3.5 18.75C3.5 19.716 4.284 20.5 5.25 20.5L18.75 20.5C19.7165 20.5 20.5 19.7165 20.5 18.75L20.5 12.5 3.5 12.5Z" fill="#212121"/></svg>