<svg width="24" height="24" viewBox="0 0 24 24" xmlns="http://www.w3.org/2000/svg" xmlns:xlink="http://www.w3.org/1999/xlink" fill="none" overflow="hidden"><path d="M3 3.747C3 3.33279 3.33579 2.997 3.75 2.997L20.254 2.997C20.6682 2.997 21.004 3.33279 21.004 3.747 21.004 3.90928 20.9514 4.06718 20.854 4.197L16.69 9.748 20.854 15.3C21.1025 15.6314 21.0354 16.1015 20.704 16.35 20.5742 16.4474 20.4163 16.5 20.254 16.5L4.5 16.5 4.5 21.249C4.49998 21.6238 4.2233 21.941 3.852 21.992L3.75 22C3.37521 22 3.05797 21.7233 3.007 21.352L3 21.249 3 3.747ZM18.754 4.497 4.5 4.497 4.5 15 18.754 15 15.152 10.198C14.952 9.93133 14.952 9.56467 15.152 9.298L18.754 4.498Z" fill="#7F7F7F"/></svg>