<svg width="24" height="24" viewBox="0 0 24 24" xmlns="http://www.w3.org/2000/svg" xmlns:xlink="http://www.w3.org/1999/xlink" fill="none" overflow="hidden"><path d="M2 5.75C2 4.23122 3.23122 3 4.75 3L6.25 3C6.66421 3 7 3.33579 7 3.75 7 4.16421 6.66421 4.5 6.25 4.5L4.75 4.5C4.06 4.5 3.5 5.06 3.5 5.75L3.5 7.25C3.5 7.66421 3.16421 8 2.75 8 2.33579 8 2 7.66421 2 7.25L2 5.75ZM17 3.75C17 3.33579 17.3358 3 17.75 3L19.25 3C20.7688 3 22 4.23122 22 5.75L22 7.25C22 7.66421 21.6642 8 21.25 8 20.8358 8 20.5 7.66421 20.5 7.25L20.5 5.75C20.5 5.06 19.94 4.5 19.25 4.5L17.75 4.5C17.3358 4.5 17 4.16421 17 3.75ZM2.75 16C3.16421 16 3.5 16.3358 3.5 16.75L3.5 18.25C3.5 18.94 4.06 19.5 4.75 19.5L6.25 19.5C6.66421 19.5 7 19.8358 7 20.25 7 20.6642 6.66421 21 6.25 21L4.75 21C3.23122 21 2 19.7688 2 18.25L2 16.75C2 16.3358 2.33579 16 2.75 16ZM21.25 16C21.6642 16 22 16.3358 22 16.75L22 18.25C22 19.7688 20.7688 21 19.25 21L17.75 21C17.3358 21 17 20.6642 17 20.25 17 19.8358 17.3358 19.5 17.75 19.5L19.25 19.5C19.94 19.5 20.5 18.94 20.5 18.25L20.5 16.75C20.5 16.3358 20.8358 16 21.25 16ZM5.75 7C6.16421 7 6.5 7.33579 6.5 7.75L6.5 16.25C6.5 16.6642 6.16421 17 5.75 17 5.33579 17 5 16.6642 5 16.25L5 7.75C5 7.33579 5.33579 7 5.75 7ZM10.5 7.75C10.5 7.33579 10.1642 7 9.75 7 9.33579 7 9 7.33579 9 7.75L9 16.25C9 16.6642 9.33579 17 9.75 17 10.1642 17 10.5 16.6642 10.5 16.25L10.5 7.75ZM13.75 7C14.1642 7 14.5 7.33579 14.5 7.75L14.5 16.25C14.5 16.6642 14.1642 17 13.75 17 13.3358 17 13 16.6642 13 16.25L13 7.75C13 7.33579 13.3358 7 13.75 7ZM18.5 7.75C18.5 7.33579 18.1642 7 17.75 7 17.3358 7 17 7.33579 17 7.75L17 16.25C17 16.6642 17.3358 17 17.75 17 18.1642 17 18.5 16.6642 18.5 16.25L18.5 7.75Z" fill="#FFFFFF"/></svg>