<svg width="24" height="24" viewBox="0 0 24 24" xmlns="http://www.w3.org/2000/svg" xmlns:xlink="http://www.w3.org/1999/xlink" fill="none" overflow="hidden"><path d="M16.749 2 21.303 2 21.403 2.014 21.502 2.042 21.562 2.068C21.642 2.102 21.715 2.153 21.781 2.218L21.821 2.262 21.865 2.319 21.919 2.409 21.958 2.499 21.977 2.563 21.991 2.627 22 2.722 22 7.254C21.9999 7.66821 21.664 8.0039 21.2498 8.00377 20.8751 8.00366 20.5581 7.72713 20.507 7.356L20.5 7.254 20.5 4.559 14.06 10.999C13.7976 11.2615 13.3826 11.2925 13.084 11.072L13 11 9.97 8.09 4.28 13.779C3.98751 14.0723 3.51264 14.0729 3.21934 13.7805 2.95566 13.5175 2.92485 13.1009 3.147 12.802L3.22 12.718 9.44 6.498C9.7027 6.23581 10.1177 6.20519 10.416 6.426L10.5 6.498 13.53 9.408 19.438 3.5 16.748 3.5C16.3736 3.49949 16.0569 3.22293 16.006 2.852L15.999 2.75C15.999 2.37521 16.2757 2.05797 16.647 2.007L16.75 2ZM3.75 17C4.16421 17 4.5 17.3358 4.5 17.75L4.5 21.25C4.5 21.6642 4.16421 22 3.75 22 3.33579 22 3 21.6642 3 21.25L3 17.75C3 17.3358 3.33579 17 3.75 17ZM9.5 13.75C9.5 13.3358 9.16421 13 8.75 13 8.33579 13 8 13.3358 8 13.75L8 21.25C8 21.6642 8.33579 22 8.75 22 9.16421 22 9.5 21.6642 9.5 21.25L9.5 13.75ZM13.75 15C14.1642 15 14.5 15.3358 14.5 15.75L14.5 21.25C14.5 21.6642 14.1642 22 13.75 22 13.3358 22 13 21.6642 13 21.25L13 15.75C13 15.3358 13.3358 15 13.75 15ZM19.5 10.75C19.5 10.3358 19.1642 10 18.75 10 18.3358 10 18 10.3358 18 10.75L18 21.25C18 21.6642 18.3358 22 18.75 22 19.1642 22 19.5 21.6642 19.5 21.25L19.5 10.75Z" fill="#FFFFFF"/></svg>