<svg version="1.2" xmlns="http://www.w3.org/2000/svg" viewBox="0 0 1280 720" width="1280" height="720">
	<title>New Project</title>
	<style>
		.s0 { fill: #000000 } 
		.s1 { fill: #ffffff } 
	</style>
	<g id="Layer 1">
		<path id="Path 0" class="s0" d="m661 215.8c0 0.4-2.8 1.3-6.2 2.1-3.5 0.7-10.3 2.9-15.3 4.8-5 2-13.3 6-18.5 9.1-6.9 4.1-12 8.1-18.5 14.7-5 5-11.2 12.5-14 16.6-2.7 4-6.7 11.2-8.8 15.9-2.2 4.7-5.1 12.8-6.4 18-1.5 6-2.6 13.9-3 21.5-0.4 8.8-0.1 14.5 1 21.5 0.9 5.2 2.6 12.4 3.7 16 1.2 3.6 4.1 10.5 6.5 15.5 2.5 4.9 7.3 12.6 10.8 17 3.5 4.4 9.7 10.9 13.7 14.5 4.1 3.6 10.6 8.4 14.5 10.7 3.9 2.3 10.4 5.5 14.5 7.2 4.1 1.6 10.4 3.7 14 4.7 3.6 0.9 8.1 2.3 10 3.1 2.7 1.2 6.7 1.5 18.1 1.2 9.2-0.3 15.1-0.8 16-1.6 0.8-0.6 4.5-1.9 8.4-2.9 3.9-0.9 10.1-3 14-4.6 3.9-1.5 10.3-4.7 14.4-7.1 4-2.3 10.5-6.9 14.4-10.2 3.9-3.3 10.2-9.6 13.9-14 3.7-4.4 8.8-11.6 11.2-16 2.5-4.4 6.1-12.7 8-18.5 1.9-5.8 3.9-14 4.5-18.3 0.6-4.2 1.1-11.2 1.1-15.5 0-4.2-0.7-11.6-1.5-16.5-0.8-4.8-2.4-11.5-3.6-15-1.1-3.4-4.1-10.3-6.5-15.2-2.4-5-7.4-12.8-11.2-17.4-3.7-4.7-9.7-11.2-13.5-14.5-3.7-3.4-10.7-8.5-15.5-11.4-4.8-2.9-12.3-6.6-16.7-8.3-4.4-1.7-11.4-3.8-15.5-4.6-4.1-0.8-8-1.9-8.5-2.4-0.5-0.5-3.1-0.9-5.8-0.9-2.8 0-4.5 0.4-4.2 1 0.3 0.6-1.2 1-3.5 1-2.3 0-3.8-0.4-3.5-1 0.3-0.6-2-1-6-1-3.6 0-6.5 0.3-6.5 0.7z"/>
		<path id="Path 1" class="s1" d="m666 224c-4.1 0.4-10.2 1.5-13.5 2.3-3.3 0.9-8.9 2.8-12.5 4.3-3.6 1.4-9.2 4.2-12.5 6.2-3.3 1.9-8.9 5.8-12.4 8.6-3.5 2.8-9.3 8.5-12.9 12.6-3.5 4.1-8.4 10.9-10.8 15-2.4 4.1-6.1 12.4-8.1 18.5-3.5 10.5-3.7 11.7-4.1 27.5-0.4 15.4-0.3 17.2 2.2 27 1.6 6.3 4.6 14.3 7.4 19.9 2.6 5.2 7.6 13 11.2 17.5 3.6 4.4 10.5 11.4 15.5 15.4 5.3 4.4 12.7 9.1 18 11.7 5 2.4 12.6 5.4 17 6.6 6.1 1.7 11.7 2.3 23.5 2.6 14.2 0.5 16.4 0.3 26.5-2.1 6.8-1.7 14.4-4.3 20-7.1 5-2.5 12.8-7.5 17.5-11.3 4.7-3.7 11.1-9.9 14.3-13.8 3.1-3.8 7.7-10.3 10.2-14.4 2.5-4.1 6.2-12.4 8.2-18.5l3.8-11c0-38.9-0.1-39-3.4-49-1.8-5.5-5.2-13.4-7.4-17.5-2.3-4.1-7.3-11.3-11.2-16-3.9-4.7-10-10.8-13.6-13.7-3.5-2.8-10-7.1-14.4-9.6-4.4-2.4-11.6-5.6-16-7-4.4-1.4-10.7-3.1-14-3.6-3.3-0.5-9.4-1.2-13.5-1.5-4.1-0.2-10.9-0.1-15 0.4z"/>
		<path id="Path 2" class="s0" d="m662 286.1c-5.2 3.4-16.7 11.1-25.5 17.2-8.8 6.1-17.7 12.3-19.8 13.9-2 1.5-3.7 3.2-3.7 3.8 0 0.5 5.1 5 11.3 9.8 6.1 4.9 18.2 14 26.7 20.4 8.5 6.3 16.8 12.3 18.3 13.4 2.3 1.5 3 1.7 4 0.6 0.8-0.8 1.4-6.6 1.7-16.3 0.3-8.2 0.8-14.9 1.3-14.9 0.4 0 6.2 4.2 13 9.2 6.7 5.1 15.4 11.6 19.2 14.4 3.9 2.8 8.1 5.6 9.5 6.3 1.4 0.7 3.1 1 3.8 0.7 0.9-0.5 1.1-9.6 1-41.9-0.3-40.3-0.3-41.2-2.3-41.5-1.2-0.2-10.1 5.2-23.5 14.3l-21.5 14.6c-0.8-21.4-1.3-28.2-1.8-28.9-0.4-0.6-1-1.2-1.4-1.2-0.5 0-5.1 2.7-10.3 6.1z"/>
	</g>
</svg>