<?xml version="1.0" encoding="utf-8"?>
<!-- Generator: Adobe Illustrator 18.0.0, SVG Export Plug-In . SVG Version: 6.00 Build 0)  -->
<!DOCTYPE svg PUBLIC "-//W3C//DTD SVG 1.0//EN" "http://www.w3.org/TR/2001/REC-SVG-20010904/DTD/svg10.dtd">
<svg version="1.0" id="Layer_1" xmlns="http://www.w3.org/2000/svg" xmlns:xlink="http://www.w3.org/1999/xlink" x="0px" y="0px"
	 viewBox="0 0 410 98" enable-background="new 0 0 410 98" xml:space="preserve">
<g>
</g>
<g>
</g>
<g>
	<polygon fill="#FDC010" points="41.2,22.5 41.1,46.5 51.8,46.5 51.9,22.6 60,30.4 67.4,23.2 46.6,3 25.7,23 33.1,30.3 	"/>
	<path fill="#58595B" d="M17.4,45.3l11.2-10.7c0.6-0.6,0.6-1.6,0-2.2l-5.1-5c-0.6-0.6-1.7-0.6-2.3,0L2.5,45.2
		c-0.6,0.6-0.6,1.6,0,2.2l18.5,18c0.6,0.6,1.7,0.6,2.3,0l5.2-5c0.6-0.6,0.6-1.6,0-2.2L17.4,47.5C16.8,46.9,16.8,45.9,17.4,45.3z"/>
	<path d="M45.2,74.5L34.1,63.8c-0.6-0.6-1.7-0.6-2.3,0l-5.2,5c-0.6,0.6-0.6,1.6,0,2.2l18.5,18c0.6,0.6,1.7,0.6,2.3,0l18.6-17.8
		c0.6-0.6,0.6-1.6,0-2.2l-5.1-5c-0.6-0.6-1.7-0.6-2.3,0L47.5,74.5C46.9,75.2,45.8,75.1,45.2,74.5z"/>
	<path fill="#58595B" d="M69.6,27.6l-5.2,4.9c-0.6,0.6-0.6,1.6,0,2.2l11.1,10.8c0.6,0.6,0.6,1.6,0,2.2L64.4,58.4
		c-0.6,0.6-0.6,1.6,0,2.2l5.1,5c0.6,0.6,1.7,0.6,2.3,0l18.6-17.8c0.6-0.6,0.6-1.6,0-2.2l-18.5-18C71.3,27,70.3,27,69.6,27.6z"/>
</g>
<g>
	<path d="M141.9,36.5v19.8h-11.6V38.1c0-3.8-1.5-5.6-4.4-5.6c-3.6,0-5.7,2.4-5.7,6.6v17.3h-11.6V23.9h8.1l1.6,3.3
		c2.5-2.7,6.2-4.3,10.6-4.3C136.8,22.9,141.9,28.3,141.9,36.5z"/>
	<path d="M183.4,39.8c0,1-0.1,2-0.2,3h-24.9c0.8,3.7,3.2,5.6,6.9,5.6c2.7,0,5-1.1,6.1-3h11.5c-2.4,7.4-9.2,12-17.6,12
		c-10.5,0-18.2-7.4-18.2-17.3c0-9.9,7.7-17.2,18.2-17.2C175.9,22.8,183.4,30.3,183.4,39.8L183.4,39.8z M158.5,36.6H172
		c-1-3.2-3.4-5-6.9-5C161.7,31.6,159.4,33.3,158.5,36.6z"/>
	<path d="M206.9,56.3l-5.5-9.6l-5.6,9.6H183l11.1-16.8l-10.3-15.6h12.8l4.8,8.2l5.1-8.2h12.6l-10.4,15.3l11.2,17.1H206.9z"/>
	<path d="M245.3,46.5v9.8h-8c-7.4,0-11.9-4.4-11.9-11.6V32.5h-6.1v-2.6l15-15.5h2.4v9.5h8.4v8.6h-8.1v10.3c0,2.3,1.5,3.7,3.9,3.7
		H245.3z"/>
	<path fill="#FDC010" d="M250.7,12.2h11.6v44.1h-11.6V12.2z"/>
	<path fill="#FDC010" d="M304.1,39.8c0,1-0.1,2-0.2,3h-24.9c0.8,3.7,3.2,5.6,6.9,5.6c2.7,0,5-1.1,6.1-3h11.5
		c-2.4,7.4-9.2,12-17.6,12c-10.5,0-18.2-7.4-18.2-17.3c0-9.9,7.7-17.2,18.2-17.2C296.6,22.8,304.1,30.3,304.1,39.8L304.1,39.8z
		 M279.1,36.6h13.6c-1-3.2-3.4-5-6.9-5C282.4,31.6,280.1,33.3,279.1,36.6z"/>
	<path fill="#FDC010" d="M341.9,23.9l-13.5,32.4H318l-13.7-32.4H317l6.3,19.2l6.3-19.2H341.9z"/>
	<path fill="#FDC010" d="M378.7,39.8c0,1-0.1,2-0.2,3h-24.9c0.8,3.7,3.2,5.6,6.9,5.6c2.7,0,5-1.1,6.1-3H378c-2.4,7.4-9.2,12-17.6,12
		c-10.5,0-18.2-7.4-18.2-17.3c0-9.9,7.7-17.2,18.2-17.2C371.2,22.8,378.7,30.3,378.7,39.8L378.7,39.8z M353.8,36.6h13.6
		c-1-3.2-3.4-5-6.9-5C357.1,31.6,354.7,33.3,353.8,36.6z"/>
	<path fill="#FDC010" d="M384,12.2h11.6v44.1H384V12.2z"/>
</g>
<g>
	<path fill="#FDC010" d="M175.7,95.5V73.1h2c0.5,0,0.8,0.2,0.9,0.6l0.3,2c0.8-0.9,1.7-1.6,2.8-2.1s2.2-0.8,3.6-0.8
		c1.1,0,2.1,0.2,3,0.6c0.9,0.4,1.6,0.9,2.3,1.6s1.1,1.6,1.4,2.7s0.5,2.3,0.5,3.7c0,1.2-0.2,2.4-0.6,3.4c-0.4,1.1-0.9,2-1.6,2.8
		c-0.7,0.8-1.6,1.4-2.6,1.8c-1,0.4-2.2,0.7-3.4,0.7c-1.2,0-2.2-0.2-3-0.5c-0.8-0.3-1.6-0.8-2.2-1.5v7.4H175.7z M184.1,75.2
		c-1.1,0-2,0.2-2.9,0.7c-0.8,0.4-1.6,1.1-2.3,1.9v8.1c0.6,0.7,1.3,1.2,2,1.5c0.7,0.3,1.5,0.4,2.4,0.4c1.8,0,3.1-0.6,4.1-1.7
		c0.9-1.1,1.4-2.7,1.4-4.8c0-1.1-0.1-2-0.3-2.8c-0.2-0.8-0.5-1.4-0.9-1.9c-0.4-0.5-0.9-0.9-1.5-1.1
		C185.5,75.3,184.9,75.2,184.1,75.2z"/>
	<path fill="#FDC010" d="M201.1,89.9V65.5h3.4v10c0.8-0.8,1.7-1.5,2.7-1.9c1-0.5,2.2-0.7,3.5-0.7c1.1,0,2.1,0.2,3,0.5
		c0.9,0.4,1.6,0.9,2.3,1.6s1.1,1.6,1.4,2.7c0.3,1.1,0.5,2.3,0.5,3.7c0,1.2-0.2,2.4-0.6,3.4c-0.4,1.1-0.9,2-1.6,2.8s-1.6,1.4-2.6,1.8
		c-1,0.4-2.2,0.7-3.4,0.7c-1.2,0-2.3-0.2-3.1-0.6s-1.6-1-2.2-1.8l-0.2,1.5c-0.1,0.4-0.4,0.6-0.9,0.6H201.1z M209.6,75.2
		c-1.1,0-2,0.2-2.9,0.7c-0.8,0.4-1.6,1.1-2.3,1.9v8.1c0.6,0.7,1.3,1.2,2,1.5c0.7,0.3,1.5,0.4,2.4,0.4c1.8,0,3.1-0.6,4.1-1.7
		c0.9-1.1,1.4-2.7,1.4-4.8c0-1.1-0.1-2-0.3-2.8c-0.2-0.8-0.5-1.4-0.9-1.9c-0.4-0.5-0.9-0.9-1.5-1.1C211,75.3,210.3,75.2,209.6,75.2z
		"/>
	<path fill="#FDC010" d="M231.1,67.9c0,0.3-0.1,0.6-0.2,0.8c-0.1,0.2-0.3,0.5-0.5,0.7c-0.2,0.2-0.5,0.3-0.8,0.5
		c-0.3,0.1-0.6,0.2-0.9,0.2s-0.6-0.1-0.9-0.2c-0.3-0.1-0.5-0.3-0.7-0.5c-0.2-0.2-0.4-0.4-0.5-0.7c-0.1-0.2-0.2-0.5-0.2-0.8
		c0-0.3,0.1-0.6,0.2-0.8c0.1-0.3,0.3-0.5,0.5-0.7c0.2-0.2,0.5-0.3,0.7-0.5c0.3-0.1,0.6-0.2,0.9-0.2s0.6,0.1,0.9,0.2
		c0.3,0.1,0.5,0.3,0.8,0.5c0.2,0.2,0.4,0.4,0.5,0.7C231,67.3,231.1,67.6,231.1,67.9z M230.3,73.1v16.8H227V73.1H230.3z"/>
	<path fill="#58595B" d="M252.8,89.9V73.1h1.9c0.4,0,0.6,0.1,0.7,0.2c0.1,0.1,0.2,0.3,0.3,0.6l0.2,2.6c0.6-1.2,1.5-2.1,2.4-2.7
		c1-0.7,2.1-1,3.4-1c0.5,0,1,0.1,1.4,0.2c0.4,0.1,0.8,0.3,1.2,0.4l-0.4,2.2c-0.1,0.3-0.3,0.4-0.6,0.4c-0.2,0-0.4-0.1-0.8-0.2
		c-0.4-0.1-0.9-0.2-1.5-0.2c-1.2,0-2.1,0.3-2.9,0.9c-0.8,0.6-1.4,1.5-2,2.6v10.7H252.8z"/>
	<path fill="#58595B" d="M280.1,72.9c1.1,0,2.2,0.2,3.1,0.5c1,0.3,1.8,0.8,2.5,1.5s1.2,1.4,1.6,2.3c0.4,0.9,0.6,2,0.6,3.2
		c0,0.5-0.1,0.8-0.2,0.9s-0.3,0.2-0.6,0.2h-12.6c0,1.1,0.2,2,0.5,2.8c0.3,0.8,0.7,1.4,1.2,2c0.5,0.5,1.1,0.9,1.9,1.2
		c0.7,0.3,1.5,0.4,2.4,0.4c0.8,0,1.6-0.1,2.2-0.3c0.6-0.2,1.1-0.4,1.6-0.6s0.8-0.4,1.1-0.6c0.3-0.2,0.5-0.3,0.8-0.3
		c0.3,0,0.5,0.1,0.6,0.3l0.9,1.1c-0.4,0.4-0.9,0.8-1.5,1.1c-0.6,0.3-1.2,0.6-1.8,0.8s-1.3,0.4-2,0.5c-0.7,0.1-1.4,0.2-2.1,0.2
		c-1.3,0-2.5-0.2-3.6-0.6c-1.1-0.4-2.1-1-2.9-1.7c-0.8-0.8-1.4-1.7-1.9-2.8s-0.7-2.4-0.7-3.8c0-1.2,0.2-2.3,0.6-3.3
		c0.4-1,1-1.9,1.8-2.6c0.8-0.7,1.7-1.3,2.8-1.8C277.4,73.1,278.7,72.9,280.1,72.9z M280.1,75c-1.6,0-2.9,0.4-3.8,1.2
		c-0.9,0.8-1.5,2-1.7,3.4h10.3c0-0.7-0.1-1.3-0.3-1.9c-0.2-0.6-0.5-1.1-0.9-1.5c-0.4-0.4-0.9-0.7-1.5-1
		C281.6,75.1,280.9,75,280.1,75z"/>
	<path fill="#58595B" d="M296.8,95.5V73.1h2c0.5,0,0.8,0.2,0.9,0.6l0.3,2c0.8-0.9,1.7-1.6,2.8-2.1s2.2-0.8,3.6-0.8
		c1.1,0,2.1,0.2,3,0.6c0.9,0.4,1.6,0.9,2.3,1.6s1.1,1.6,1.4,2.7s0.5,2.3,0.5,3.7c0,1.2-0.2,2.4-0.6,3.4c-0.4,1.1-0.9,2-1.6,2.8
		c-0.7,0.8-1.6,1.4-2.6,1.8c-1,0.4-2.2,0.7-3.4,0.7c-1.2,0-2.2-0.2-3-0.5c-0.8-0.3-1.6-0.8-2.2-1.5v7.4H296.8z M305.3,75.2
		c-1.1,0-2,0.2-2.9,0.7c-0.8,0.4-1.6,1.1-2.3,1.9v8.1c0.6,0.7,1.3,1.2,2,1.5c0.7,0.3,1.5,0.4,2.4,0.4c1.8,0,3.1-0.6,4.1-1.7
		c0.9-1.1,1.4-2.7,1.4-4.8c0-1.1-0.1-2-0.3-2.8c-0.2-0.8-0.5-1.4-0.9-1.9c-0.4-0.5-0.9-0.9-1.5-1.1C306.7,75.3,306,75.2,305.3,75.2z
		"/>
	<path fill="#58595B" d="M329.9,72.9c1.4,0,2.6,0.2,3.8,0.6c1.1,0.4,2.1,1,2.8,1.7c0.8,0.7,1.4,1.7,1.8,2.7c0.4,1.1,0.6,2.3,0.6,3.6
		c0,1.3-0.2,2.5-0.6,3.6c-0.4,1.1-1,2-1.8,2.7c-0.8,0.8-1.7,1.3-2.8,1.7s-2.4,0.6-3.8,0.6c-1.4,0-2.6-0.2-3.8-0.6
		c-1.1-0.4-2.1-1-2.9-1.7s-1.4-1.7-1.8-2.7c-0.4-1.1-0.6-2.2-0.6-3.6c0-1.3,0.2-2.5,0.6-3.6c0.4-1.1,1-2,1.8-2.7
		c0.8-0.8,1.7-1.3,2.9-1.7C327.2,73.1,328.5,72.9,329.9,72.9z M329.9,87.8c1.9,0,3.3-0.6,4.2-1.7c0.9-1.1,1.4-2.7,1.4-4.6
		c0-2-0.5-3.5-1.4-4.7c-0.9-1.1-2.3-1.7-4.2-1.7c-0.9,0-1.8,0.1-2.5,0.4c-0.7,0.3-1.3,0.7-1.8,1.2c-0.5,0.5-0.8,1.2-1,2
		c-0.2,0.8-0.3,1.7-0.3,2.7s0.1,1.9,0.3,2.7c0.2,0.8,0.6,1.4,1,2c0.5,0.5,1.1,0.9,1.8,1.2C328.1,87.7,328.9,87.8,329.9,87.8z"/>
	<path fill="#58595B" d="M347.7,89.9V73.1h1.9c0.4,0,0.6,0.1,0.7,0.2c0.1,0.1,0.2,0.3,0.3,0.6l0.2,2.6c0.6-1.2,1.5-2.1,2.4-2.7
		c1-0.7,2.1-1,3.4-1c0.5,0,1,0.1,1.4,0.2c0.4,0.1,0.8,0.3,1.2,0.4l-0.4,2.2c-0.1,0.3-0.3,0.4-0.6,0.4c-0.2,0-0.4-0.1-0.8-0.2
		c-0.4-0.1-0.9-0.2-1.5-0.2c-1.2,0-2.1,0.3-2.9,0.9c-0.8,0.6-1.4,1.5-2,2.6v10.7H347.7z"/>
	<path fill="#58595B" d="M373.2,90.1c-1.5,0-2.6-0.4-3.5-1.1c-0.8-0.7-1.2-1.8-1.2-3.2V75.6h-2.3c-0.2,0-0.4-0.1-0.5-0.2
		c-0.1-0.1-0.2-0.3-0.2-0.5v-1.2l3.1-0.3l0.8-5.2c0-0.2,0.1-0.3,0.2-0.4c0.1-0.1,0.3-0.2,0.5-0.2h1.7v5.8h5.4v2.1h-5.4v10.1
		c0,0.7,0.2,1.2,0.6,1.6c0.4,0.3,0.9,0.5,1.5,0.5c0.3,0,0.7,0,0.9-0.1s0.5-0.2,0.7-0.3c0.2-0.1,0.3-0.2,0.5-0.3s0.2-0.1,0.3-0.1
		c0.2,0,0.3,0.1,0.5,0.3l1,1.4c-0.6,0.5-1.3,0.8-2.1,1.1C374.9,90,374.1,90.1,373.2,90.1z"/>
	<path fill="#58595B" d="M397,75.9c-0.2,0.2-0.4,0.4-0.7,0.4c-0.2,0-0.4-0.1-0.6-0.2c-0.2-0.1-0.5-0.3-0.9-0.4
		c-0.3-0.1-0.8-0.3-1.2-0.4c-0.5-0.1-1-0.2-1.7-0.2c-0.6,0-1.1,0.1-1.5,0.2s-0.8,0.3-1.2,0.5c-0.3,0.2-0.6,0.5-0.7,0.8
		c-0.2,0.3-0.3,0.6-0.3,1c0,0.4,0.1,0.8,0.4,1.1c0.3,0.3,0.7,0.5,1.1,0.7c0.5,0.2,1,0.4,1.6,0.6c0.6,0.2,1.2,0.3,1.8,0.5
		c0.6,0.2,1.2,0.4,1.8,0.6c0.6,0.2,1.1,0.5,1.6,0.8s0.8,0.7,1.1,1.2c0.3,0.5,0.4,1.1,0.4,1.7c0,0.8-0.2,1.5-0.5,2.1
		c-0.3,0.7-0.8,1.2-1.4,1.7c-0.6,0.5-1.4,0.9-2.2,1.1s-1.9,0.4-3.1,0.4c-1.3,0-2.5-0.2-3.6-0.6s-2-0.9-2.7-1.5l0.8-1.1
		c0.1-0.1,0.2-0.3,0.4-0.3c0.1-0.1,0.3-0.1,0.5-0.1s0.5,0.1,0.7,0.2s0.6,0.3,0.9,0.5s0.8,0.4,1.3,0.5c0.5,0.2,1.1,0.2,1.9,0.2
		c0.6,0,1.2-0.1,1.7-0.2c0.5-0.1,0.9-0.3,1.2-0.6c0.3-0.3,0.6-0.5,0.7-0.9c0.2-0.3,0.2-0.7,0.2-1.1c0-0.5-0.1-0.8-0.4-1.1
		c-0.3-0.3-0.7-0.6-1.1-0.8s-1-0.4-1.6-0.6c-0.6-0.2-1.2-0.3-1.8-0.5c-0.6-0.2-1.2-0.4-1.8-0.6c-0.6-0.2-1.1-0.5-1.6-0.9
		s-0.8-0.8-1.1-1.3c-0.3-0.5-0.4-1.1-0.4-1.8c0-0.6,0.1-1.3,0.4-1.8c0.3-0.6,0.7-1.1,1.3-1.6s1.3-0.8,2.1-1.1
		c0.8-0.3,1.8-0.4,2.9-0.4c1.2,0,2.4,0.2,3.4,0.5c1,0.3,1.8,0.8,2.6,1.4L397,75.9z"/>
</g>
</svg>
